<?xml version="1.0" encoding="utf-8"?>
<!-- Generator: Adobe Illustrator 16.0.0, SVG Export Plug-In . SVG Version: 6.00 Build 0)  -->
<!DOCTYPE svg PUBLIC "-//W3C//DTD SVG 1.1//EN" "http://www.w3.org/Graphics/SVG/1.1/DTD/svg11.dtd">
<svg version="1.1" id="Grid" xmlns="http://www.w3.org/2000/svg" xmlns:xlink="http://www.w3.org/1999/xlink" x="0px" y="0px"
	 width="400px" height="400px" viewBox="0 0 400 400" enable-background="new 0 0 400 400" xml:space="preserve">
<g>
	<path d="M199.505,217.483c44.336,0,80.294-35.951,80.294-80.287c0-44.343-35.958-80.057-80.294-80.057
		s-80.294,35.965-80.294,80.057C119.21,181.281,155.169,217.483,199.505,217.483z M199.505,78.072
		c32.513,0,59.117,26.604,59.117,59.124c0,32.506-26.604,59.096-59.117,59.096s-59.11-26.59-59.11-59.096
		C140.395,104.677,166.992,78.072,199.505,78.072z"/>
	<path d="M60.589,342.86h278.815c5.915,0,10.596-4.688,10.596-10.603c0-55.413-45.075-100.726-100.739-100.726h-98.521
		C95.319,231.532,50,276.594,50,332.258C50,338.173,54.681,342.86,60.589,342.86z M150.739,252.71h98.521
		c40.395,0,73.646,30.05,78.815,68.959H71.917C77.093,283.011,110.345,252.71,150.739,252.71z"/>
</g>
</svg>
